<?xml version="1.0" encoding="UTF-8"?> <svg xmlns="http://www.w3.org/2000/svg" width="3544" height="1396" viewBox="0 0 3544 1396" fill="none"><g><path d="M0 875.263L271.448 527.159V520.508H9.74788V408.345H436.438V522.159L163.352 870.275V876.914H438.053V989.908H0V875.263Z" fill="#160832"></path><path d="M529.037 408.345H889.074V520.508H657.453V640.973H854.94V753.135H657.453V876.925H898.02V989.919H529.048V408.345H529.037Z" fill="#160832"></path><path d="M985.751 408.345H1208.44C1324.65 408.345 1409.99 486.446 1409.99 600.26C1409.99 678.36 1366.91 739.834 1309.21 769.751L1430.31 989.908H1287.28L1190.57 795.5H1114.17V989.908H985.751V408.345ZM1197.06 683.348C1243.37 683.348 1278.33 654.274 1278.33 600.271C1278.33 552.087 1245.82 520.519 1195.44 520.519H1114.17V683.36H1197.06V683.348Z" fill="#160832"></path><path d="M1476.58 699.133C1476.58 527.991 1604.99 397.55 1778.93 397.55C1952.85 397.55 2081.26 529.642 2081.26 699.133C2081.26 869.444 1952.03 1000.72 1778.93 1000.72C1604.19 1000.72 1476.58 871.107 1476.58 699.133ZM1947.16 699.133C1947.16 600.261 1877.25 523.834 1778.93 523.834C1679.77 523.834 1609.88 600.272 1609.88 699.133C1609.88 799.657 1679.78 874.432 1778.93 874.432C1877.25 874.432 1947.16 799.657 1947.16 699.133Z" fill="#160832"></path></g><g class="circle"><path fill-rule="evenodd" clip-rule="evenodd" d="M2888.28 397.996L2892.91 132.957C2806.92 131.457 2721.73 149.663 2643.86 186.181C2566 222.698 2497.52 276.557 2443.69 343.629L2650.42 509.544C2677.26 476.056 2711.78 447.862 2752.97 427.894C2796.62 406.732 2842.89 397.169 2888.28 397.996Z" fill="#160832" fill-opacity="0.4"></path><path fill-rule="evenodd" clip-rule="evenodd" d="M3432.25 570.406C3413.32 487.822 3376.01 410.572 3323.09 344.404L3116.08 509.952C3129.66 526.967 3141.58 545.744 3151.48 566.159C3182.26 629.654 3188.5 698.689 3173.92 762.516L3432.42 821.388C3451.24 738.778 3451.18 652.989 3432.25 570.406Z" fill="#160832" fill-opacity="0.9"></path><path fill-rule="evenodd" clip-rule="evenodd" d="M3126.95 188.394C3050.58 151.721 2966.91 132.747 2882.19 132.883L2882.61 397.942C2972.22 397.863 3059 438.344 3116.21 510.106L3323.32 344.695C3270.45 278.492 3203.33 225.066 3126.95 188.394Z" fill="#160832"></path><path fill-rule="evenodd" clip-rule="evenodd" d="M2650.42 509.543L2443.71 343.636C2390.68 409.712 2353.23 486.897 2334.16 569.448C2315.08 651.998 2314.87 737.786 2333.54 820.429L2592.09 762.021C2571.8 672.593 2594.34 579.514 2650.42 509.543Z" fill="#160832" fill-opacity="0.5"></path><path fill-rule="evenodd" clip-rule="evenodd" d="M3012.39 965.065C2927.28 1006.01 2832.31 1002.96 2753.32 964.85L2637.97 1203.56C2714.26 1240.42 2797.88 1259.6 2882.6 1259.68C2967.33 1259.75 3050.98 1240.71 3127.33 1203.99L3012.39 965.065Z" fill="#160832" fill-opacity="0.7"></path><path fill-rule="evenodd" clip-rule="evenodd" d="M2753.32 964.851C2694.89 936.665 2645.2 889.306 2614.7 826.399C2604.53 805.416 2597.03 783.827 2592.09 762.021L2333.54 820.429C2352.21 903.071 2389.28 980.439 2441.99 1046.77C2494.7 1113.11 2561.69 1166.7 2637.97 1203.56L2753.32 964.851Z" fill="#160832" fill-opacity="0.6"></path><path fill-rule="evenodd" clip-rule="evenodd" d="M3323.58 1047.54C3376.41 981.299 3413.61 903.997 3432.42 821.387L3173.93 762.516C3154.47 847.69 3097.95 923.59 3013.21 964.67C3012.94 964.802 3012.67 964.934 3012.39 965.066L3127.33 1203.99C3203.68 1167.26 3270.76 1113.78 3323.58 1047.54Z" fill="#160832" fill-opacity="0.8"></path></g><defs><clipPath id="clip0"><rect width="2081.26" height="603.167" fill="white" transform="translate(0 397.55)"></rect></clipPath></defs></svg> 